# Blender v2.92.0 OBJ File: 'sky.blend'
# www.blender.org
mtllib sky.mtl
o 円
v 0.000000 -0.500000 -6.000000
v -3.526712 -0.500000 -4.854102
v -5.706340 -0.500000 -1.854102
v -5.706339 -0.500000 1.854102
v -3.526711 -0.500000 4.854103
v 0.000001 -0.500000 6.000000
v 3.526712 -0.500000 4.854102
v 5.706339 -0.500000 1.854103
v 5.706339 -0.500000 -1.854103
v 3.526710 -0.500000 -4.854104
v 0.000000 -3.500000 -5.196152
v 0.000000 -5.696152 -3.000000
v -0.000001 5.500000 -0.000000
v 1.763355 4.696152 -2.427051
v 3.054222 2.500000 -4.203776
v 3.526711 -0.500000 -4.854102
v 3.054222 -3.500000 -4.203775
v 1.763355 -5.696152 -2.427052
v 2.853169 4.696152 -0.927052
v 4.941834 2.500000 -1.605700
v 5.706338 -0.500000 -1.854103
v 4.941834 -3.500000 -1.605700
v 2.853169 -5.696152 -0.927052
v 2.853169 4.696152 0.927050
v 4.941834 2.500000 1.605698
v 5.706338 -0.500000 1.854101
v 4.941834 -3.500000 1.605699
v 2.853169 -5.696152 0.927050
v 1.763355 4.696152 2.427049
v 3.054222 2.500000 4.203774
v 3.526711 -0.500000 4.854101
v 3.054221 -3.500000 4.203774
v 1.763356 -5.696152 2.427050
v 0.000000 4.696152 2.999998
v 0.000000 2.500000 5.196151
v -0.000000 -0.500000 5.999999
v -0.000000 -3.500000 5.196151
v 0.000000 -5.696152 2.999999
v -1.763355 4.696152 2.427050
v -3.054221 2.500000 4.203774
v -3.526711 -0.500000 4.854102
v -3.054222 -3.500000 4.203774
v -1.763355 -5.696152 2.427050
v 0.000000 -6.500000 -0.000001
v -2.853169 4.696152 0.927050
v -4.941833 2.500000 1.605698
v -5.706338 -0.500000 1.854102
v -4.941834 -3.500000 1.605698
v -2.853169 -5.696152 0.927050
v -2.853169 4.696152 -0.927051
v -4.941833 2.500000 -1.605700
v -5.706338 -0.500000 -1.854102
v -4.941833 -3.500000 -1.605700
v -2.853169 -5.696152 -0.927051
v -1.763356 4.696152 -2.427051
v -3.054221 2.500000 -4.203775
v -3.526711 -0.500000 -4.854102
v -3.054221 -3.500000 -4.203776
v -1.763356 -5.696152 -2.427051
v -0.000001 4.696152 -3.000000
v -0.000000 2.500000 -5.196152
v -0.000001 -0.500000 -6.000000
vt 0.000000 0.145741
vt 0.076620 0.040282
vt 0.200594 0.000000
vt 0.324569 0.040282
vt 0.401189 0.145741
vt 0.401189 0.276094
vt 0.324569 0.381553
vt 0.200594 0.421835
vt 0.076620 0.381553
vt 0.000000 0.276094
vt 0.211563 0.527294
vt 0.192365 0.421835
vt 0.290298 0.444696
vt 0.306924 0.536026
vt 0.886816 0.288118
vt 0.824981 0.267978
vt 0.888796 0.182660
vt 0.813571 0.465617
vt 0.898889 0.403630
vt 0.919030 0.465617
vt 0.102735 0.536026
vt 0.086108 0.444696
vt 0.881405 0.365320
vt 0.774305 0.330435
vt 0.009599 0.559882
vt 0.000000 0.507153
vt 0.846160 0.365320
vt 0.487297 0.659682
vt 0.503923 0.568352
vt 0.612752 0.577084
vt 0.593554 0.682543
vt 0.708113 0.239105
vt 0.786765 0.215249
vt 0.401189 0.597225
vt 0.410788 0.544496
vt 0.708113 0.568352
vt 0.691486 0.659682
vt 0.780983 0.365320
vt 0.503923 0.455462
vt 0.612752 0.446730
vt 0.708113 0.126215
vt 0.786765 0.150071
vt 0.410788 0.479319
vt 0.708113 0.455462
vt 0.487297 0.364132
vt 0.593554 0.341271
vt 0.774305 0.034885
vt 0.824981 0.097342
vt 0.401189 0.426589
vt 0.691486 0.364132
vt 0.728254 0.403630
vt 0.881405 0.000000
vt 0.886816 0.077201
vt 0.401189 0.255954
vt 0.410788 0.203224
vt 0.503923 0.227081
vt 0.487297 0.318411
vt 0.612752 0.235813
vt 0.708113 0.227081
vt 0.691486 0.318411
vt 0.708113 0.465617
vt 0.410788 0.138047
vt 0.503923 0.114191
vt 0.612752 0.105459
vt 0.708113 0.114191
vt 0.948650 0.097342
vt 0.728254 0.527604
vt 0.988506 0.034885
vt 0.401189 0.085318
vt 0.487297 0.022861
vt 0.476566 0.683064
vt 0.564810 0.743917
vt 0.494165 0.827159
vt 0.417744 0.774458
vt 0.986866 0.150071
vt 0.780983 0.565914
vt 0.593554 0.000000
vt 0.445311 0.909964
vt 0.401189 0.879537
vt 0.846160 0.565914
vt 0.870016 0.639337
vt 0.757126 0.639337
vt 0.657133 0.835943
vt 0.574119 0.906856
vt 0.986866 0.215248
vt 0.638316 0.682543
vt 0.718270 0.762240
vt 0.491472 0.955976
vt 0.000000 0.677789
vt 0.009599 0.625059
vt 0.102735 0.648916
vt 0.086108 0.740246
vt 0.718270 0.923991
vt 0.627065 0.983107
vt 0.948650 0.267978
vt 0.898889 0.527604
vt 0.211563 0.657648
vt 0.192365 0.763106
vt 0.522041 1.000000
vt 0.306924 0.648916
vt 0.988506 0.330435
vn 0.0000 1.0000 0.0000
vn -0.2994 -0.2469 0.9216
vn -0.0838 -0.9625 0.2579
vn -0.0838 0.9625 0.2579
vn -0.2994 0.2469 0.9216
vn -0.2239 -0.6892 0.6892
vn -0.2239 0.6892 0.6892
vn -0.2194 0.9625 0.1594
vn -0.7840 0.2469 0.5696
vn -0.5862 -0.6892 0.4259
vn -0.5862 0.6892 0.4259
vn -0.7840 -0.2469 0.5696
vn -0.2194 -0.9625 0.1594
vn -0.2712 0.9625 0.0000
vn -0.9690 0.2469 0.0000
vn -0.7246 -0.6892 0.0000
vn -0.7246 0.6892 0.0000
vn -0.9690 -0.2469 0.0000
vn -0.2712 -0.9625 0.0000
vn -0.7840 0.2469 -0.5696
vn -0.5862 -0.6892 -0.4259
vn -0.5862 0.6892 -0.4259
vn -0.7840 -0.2469 -0.5696
vn -0.2194 -0.9625 -0.1594
vn -0.2194 0.9625 -0.1594
vn -0.2239 -0.6892 -0.6892
vn -0.2239 0.6892 -0.6892
vn -0.2994 -0.2469 -0.9216
vn -0.0838 -0.9625 -0.2579
vn -0.0838 0.9625 -0.2579
vn -0.2994 0.2469 -0.9216
vn 0.2239 0.6892 -0.6892
vn 0.2994 -0.2469 -0.9216
vn 0.0838 -0.9625 -0.2579
vn 0.0838 0.9625 -0.2579
vn 0.2994 0.2469 -0.9216
vn 0.2239 -0.6892 -0.6892
vn 0.5862 0.6892 -0.4259
vn 0.7840 -0.2469 -0.5696
vn 0.2194 -0.9625 -0.1594
vn 0.2194 0.9625 -0.1594
vn 0.7840 0.2469 -0.5696
vn 0.5862 -0.6892 -0.4259
vn 0.7246 0.6892 0.0000
vn 0.9690 -0.2469 0.0000
vn 0.2712 -0.9625 0.0000
vn 0.2712 0.9625 -0.0000
vn 0.9690 0.2469 0.0000
vn 0.7246 -0.6892 -0.0000
vn 0.5862 0.6892 0.4259
vn 0.7840 -0.2469 0.5696
vn 0.2194 -0.9625 0.1594
vn 0.2194 0.9625 0.1594
vn 0.7840 0.2469 0.5696
vn 0.5862 -0.6892 0.4259
vn 0.2994 -0.2469 0.9216
vn 0.0838 -0.9625 0.2579
vn 0.0838 0.9625 0.2579
vn 0.2994 0.2469 0.9216
vn 0.2239 -0.6892 0.6892
vn 0.2239 0.6892 0.6892
usemtl マテリアル
s off
f 2/1/1 3/2/1 4/3/1 5/4/1 6/5/1 7/6/1 8/7/1 9/8/1 10/9/1 1/10/1
f 62/11/2 16/12/2 15/13/2 61/14/2
f 60/15/3 14/16/3 13/17/3
f 44/18/4 18/19/4 12/20/4
f 11/21/5 17/22/5 16/12/5 62/11/5
f 61/23/6 15/24/6 14/16/6 60/15/6
f 12/25/7 18/26/7 17/22/7 11/21/7
f 44/18/8 23/27/8 18/19/8
f 17/28/9 22/29/9 21/30/9 16/31/9
f 15/24/10 20/32/10 19/33/10 14/16/10
f 18/34/11 23/35/11 22/29/11 17/28/11
f 16/31/12 21/30/12 20/36/12 15/37/12
f 14/16/13 19/33/13 13/17/13
f 44/18/14 28/38/14 23/27/14
f 22/29/15 27/39/15 26/40/15 21/30/15
f 20/32/16 25/41/16 24/42/16 19/33/16
f 23/35/17 28/43/17 27/39/17 22/29/17
f 21/30/18 26/40/18 25/44/18 20/36/18
f 19/33/19 24/42/19 13/17/19
f 27/39/20 32/45/20 31/46/20 26/40/20
f 25/41/21 30/47/21 29/48/21 24/42/21
f 28/43/22 33/49/22 32/45/22 27/39/22
f 26/40/23 31/46/23 30/50/23 25/44/23
f 24/42/24 29/48/24 13/17/24
f 44/18/25 33/51/25 28/38/25
f 30/47/26 35/52/26 34/53/26 29/48/26
f 33/54/27 38/55/27 37/56/27 32/57/27
f 31/46/28 36/58/28 35/59/28 30/60/28
f 29/48/29 34/53/29 13/17/29
f 44/18/30 38/61/30 33/51/30
f 32/57/31 37/56/31 36/58/31 31/46/31
f 38/55/32 43/62/32 42/63/32 37/56/32
f 36/58/33 41/64/33 40/65/33 35/59/33
f 34/53/34 39/66/34 13/17/34
f 44/18/35 43/67/35 38/61/35
f 37/56/36 42/63/36 41/64/36 36/58/36
f 35/52/37 40/68/37 39/66/37 34/53/37
f 43/62/38 49/69/38 48/70/38 42/63/38
f 41/71/39 47/72/39 46/73/39 40/74/39
f 39/66/40 45/75/40 13/17/40
f 44/18/41 49/76/41 43/67/41
f 42/63/42 48/70/42 47/77/42 41/64/42
f 40/74/43 46/73/43 45/78/43 39/79/43
f 49/76/44 54/80/44 53/81/44 48/82/44
f 47/72/45 52/83/45 51/84/45 46/73/45
f 45/75/46 50/85/46 13/17/46
f 44/18/47 54/80/47 49/76/47
f 48/86/48 53/87/48 52/83/48 47/72/48
f 46/73/49 51/84/49 50/88/49 45/78/49
f 54/89/50 59/90/50 58/91/50 53/92/50
f 52/83/51 57/93/51 56/94/51 51/84/51
f 50/85/52 55/95/52 13/17/52
f 44/18/53 59/96/53 54/80/53
f 53/92/54 58/91/54 57/97/54 52/98/54
f 51/84/55 56/94/55 55/99/55 50/88/55
f 57/97/56 62/11/56 61/14/56 56/100/56
f 55/95/57 60/15/57 13/17/57
f 44/18/58 12/20/58 59/96/58
f 58/91/59 11/21/59 62/11/59 57/97/59
f 56/101/60 61/23/60 60/15/60 55/95/60
f 59/90/61 12/25/61 11/21/61 58/91/61
