# Blender v2.92.0 OBJ File: 'untitled.blend'
# www.blender.org
mtllib signage.mtl
o 平面.017
v 3.327976 -13.593022 46.713043
v 3.327993 -19.993023 46.713028
v 8.909368 -13.593007 44.511200
v 8.909383 -19.993006 44.511200
v 3.480191 1.195698 13.288197
v -2.519810 1.195698 13.288193
v 3.480191 -0.804302 13.288197
v -2.519810 -0.804302 13.288193
v 30.241400 -4.883940 20.564205
v 30.241404 -6.883940 20.564203
v 33.864113 -4.883928 15.781324
v 33.864113 -6.883928 15.781321
v 30.241400 -2.540907 20.564205
v 30.241404 -4.540907 20.564203
v 33.864113 -2.540897 15.781324
v 33.864113 -4.540897 15.781321
v 30.241396 -7.274226 20.564207
v 30.241400 -9.274227 20.564205
v 33.864105 -7.274216 15.781326
v 33.864113 -9.274216 15.781324
v -20.899153 -3.628695 32.530231
v -20.782078 -2.863327 32.627556
v -20.782078 -4.394060 32.627556
v -20.448679 -5.042907 32.904694
v -19.949717 -5.476453 33.319473
v -19.361149 -5.628695 33.808731
v -18.772579 -5.476453 34.297989
v -18.273615 -5.042907 34.712761
v -17.940216 -4.394060 34.989906
v -17.823145 -3.628694 35.087227
v -17.940218 -2.863327 34.989906
v -18.273615 -2.214480 34.712761
v -18.772579 -1.780934 34.297989
v -19.361149 -1.628694 33.808731
v -19.949717 -1.780935 33.319473
v -20.448681 -2.214480 32.904697
v 13.443812 -1.817537 15.769537
v 14.927186 -1.817537 14.428043
v 13.443815 -7.817537 15.769539
v 14.927186 -7.817537 14.428043
v -20.369869 -2.547567 19.687649
v -20.369865 -8.347568 19.687653
v -16.473894 -2.547564 23.131687
v -16.473890 -8.347563 23.131689
v 27.242201 -5.599674 52.329170
v 27.242212 -12.652908 52.329170
v 33.163109 -5.599667 49.385231
v 33.163120 -12.652901 49.385231
v 10.027624 -5.615477 53.964558
v 12.022498 -5.615477 54.107658
v 10.027624 -11.615477 53.964558
v 12.022498 -11.615477 54.107658
v 15.369817 1.369436 53.726936
v 17.364693 1.369436 53.870041
v 15.369818 -4.630564 53.726936
v 17.364693 -4.630564 53.870041
v -16.513128 -1.188101 55.512035
v -14.593904 -1.188101 56.074688
v -16.513126 -7.188101 55.512032
v -14.593904 -7.188101 56.074688
v -10.683414 -3.957995 42.197105
v -10.683403 -9.757996 42.197105
v -5.776274 -3.957983 43.917553
v -5.776260 -9.757984 43.917561
vt 0.255325 0.574767
vt 0.000000 0.574767
vt 0.000000 0.301337
vt 0.255325 0.301337
vt 0.358699 0.557662
vt 0.273252 0.557662
vt 0.273252 0.301337
vt 0.358699 0.301337
vt 0.859890 0.803198
vt 0.859890 0.969260
vt 0.774443 0.969259
vt 0.774443 0.803198
vt 0.646820 0.960715
vt 0.646820 0.794654
vt 0.732267 0.794654
vt 0.732267 0.960716
vt 0.561373 0.960715
vt 0.561373 0.794654
vt 0.646820 0.794654
vt 0.646820 0.960716
vt 0.214039 0.636240
vt 0.224014 0.606651
vt 0.242447 0.585065
vt 0.266529 0.574767
vt 0.292595 0.577325
vt 0.316677 0.592350
vt 0.335110 0.617554
vt 0.345085 0.649101
vt 0.345085 0.682187
vt 0.335110 0.711776
vt 0.316677 0.733362
vt 0.292595 0.743660
vt 0.266529 0.741102
vt 0.242447 0.726077
vt 0.224014 0.700873
vt 0.214039 0.669326
vt 0.971491 0.256340
vt 0.897799 0.256340
vt 0.897799 0.000000
vt 0.971491 0.000000
vt 0.561374 0.546858
vt 0.775713 0.546858
vt 0.775713 0.794653
vt 0.561374 0.794653
vt 0.282487 0.000000
vt 0.561373 0.000000
vt 0.561373 0.301338
vt 0.282487 0.301337
vt 0.890595 0.529769
vt 0.806667 0.529769
vt 0.806667 0.273429
vt 0.890595 0.273429
vt 0.897799 0.256340
vt 0.813869 0.256340
vt 0.813869 0.000000
vt 0.897799 0.000000
vt 0.859890 0.803198
vt 0.775713 0.803198
vt 0.775713 0.546858
vt 0.859890 0.546858
vt 0.000000 0.574767
vt 0.214039 0.574767
vt 0.214039 0.822562
vt 0.000000 0.822562
vn -0.3670 0.0000 -0.9302
vn 0.0000 0.0000 -1.0000
vn -0.7971 0.0000 -0.6038
vn 0.6392 0.0000 -0.7690
vn -0.6707 -0.0000 -0.7417
vn 0.6623 0.0000 -0.7492
vn -0.4452 -0.0000 -0.8954
vn 0.0715 0.0000 -0.9974
vn 0.0716 0.0000 -0.9974
vn 0.2813 0.0000 -0.9596
vn 0.3309 0.0000 -0.9437
usemtl マテリアル.003
s off
f 1/1/1 3/2/1 4/3/1 2/4/1
f 5/5/2 7/6/2 8/7/2 6/8/2
f 9/9/3 11/10/3 12/11/3 10/12/3
f 13/13/3 15/14/3 16/15/3 14/16/3
f 17/17/3 19/18/3 20/19/3 18/20/3
f 22/21/4 36/22/4 35/23/4 34/24/4 33/25/4 32/26/4 31/27/4 30/28/4 29/29/4 28/30/4 27/31/4 26/32/4 25/33/4 24/34/4 23/35/4 21/36/4
f 37/37/5 38/38/5 40/39/5 39/40/5
f 41/41/6 43/42/6 44/43/6 42/44/6
f 45/45/7 47/46/7 48/47/7 46/48/7
f 49/49/8 50/50/8 52/51/8 51/52/8
f 53/53/9 54/54/9 56/55/9 55/56/9
f 57/57/10 58/58/10 60/59/10 59/60/10
f 61/61/11 63/62/11 64/63/11 62/64/11
