# Blender v2.92.0 OBJ File: ''
# www.blender.org
mtllib stand.mtl
o 円柱.001
v 0.000000 0.140000 -1.000000
v 0.342020 0.140000 -0.939692
v 0.642788 0.140000 -0.766044
v 0.866025 0.140000 -0.500000
v 0.984808 0.140000 -0.173648
v 0.984808 0.140000 0.173648
v 0.866025 0.140000 0.500000
v 0.642788 0.140000 0.766044
v 0.342020 0.140000 0.939692
v 0.000000 0.140000 1.000000
v -0.342020 0.140000 0.939693
v -0.642787 0.140000 0.766044
v -0.866025 0.140000 0.500000
v -0.984808 0.140000 0.173649
v -0.984808 0.140000 -0.173648
v -0.866026 0.140000 -0.499999
v -0.642788 0.140000 -0.766044
v -0.342021 0.140000 -0.939692
v 0.000000 -0.474285 -1.500000
v 0.000000 -0.114285 -1.500000
v 0.513030 -0.474285 -1.409539
v 0.513030 -0.114285 -1.409539
v 0.964181 -0.474285 -1.149067
v 0.964181 -0.114285 -1.149067
v 1.299038 -0.474285 -0.750000
v 1.299038 -0.114285 -0.750000
v 1.477212 -0.474285 -0.260472
v 1.477212 -0.114285 -0.260472
v 1.477212 -0.474285 0.260472
v 1.477212 -0.114285 0.260472
v 1.299038 -0.474285 0.750000
v 1.299038 -0.114285 0.750000
v 0.964181 -0.474285 1.149067
v 0.964181 -0.114285 1.149067
v 0.513030 -0.474285 1.409539
v 0.513030 -0.114285 1.409539
v 0.000000 -0.474285 1.500000
v 0.000000 -0.114285 1.500000
v -0.513030 -0.474285 1.409539
v -0.513030 -0.114285 1.409539
v -0.964181 -0.474285 1.149067
v -0.964181 -0.114285 1.149067
v -1.299038 -0.474285 0.750000
v -1.299038 -0.114285 0.750000
v -1.477211 -0.474285 0.260473
v -1.477211 -0.114285 0.260473
v -1.477212 -0.474285 -0.260472
v -1.477212 -0.114285 -0.260472
v -1.299039 -0.474285 -0.749999
v -1.299039 -0.114285 -0.749999
v -0.964182 -0.474285 -1.149066
v -0.964182 -0.114285 -1.149066
v -0.513031 -0.474285 -1.409539
v -0.513031 -0.114285 -1.409539
v 0.000000 -0.114285 -1.000000
v -0.984808 -0.114285 0.173649
v -0.984808 -0.114285 -0.173648
v 0.342020 -0.114285 -0.939692
v -0.866026 -0.114285 -0.499999
v 0.642788 -0.114285 -0.766044
v -0.642788 -0.114285 -0.766044
v 0.866025 -0.114285 -0.500000
v -0.342021 -0.114285 -0.939692
v 0.984808 -0.114285 -0.173648
v 0.984808 -0.114285 0.173648
v 0.866025 -0.114285 0.500000
v 0.642788 -0.114285 0.766044
v 0.342020 -0.114285 0.939692
v 0.000000 -0.114285 1.000000
v -0.342020 -0.114285 0.939693
v -0.642787 -0.114285 0.766044
v -0.866025 -0.114285 0.500000
vt 0.000000 0.883559
vt 0.000000 0.840783
vt 0.014630 0.800587
vt 0.042126 0.767819
vt 0.079170 0.746432
vt 0.121296 0.739004
vt 0.163422 0.746432
vt 0.200467 0.767819
vt 0.227962 0.800587
vt 0.242592 0.840783
vt 0.242592 0.883559
vt 0.227962 0.923755
vt 0.200467 0.956523
vt 0.163422 0.977910
vt 0.121296 0.985338
vt 0.079170 0.977910
vt 0.042126 0.956523
vt 0.014630 0.923755
vt 0.173609 0.369502
vt 0.173609 0.739004
vt 0.109446 0.739004
vt 0.109446 0.369502
vt 0.049152 0.739004
vt 0.049152 0.369502
vt 0.000000 0.739004
vt 0.000000 0.369502
vt 0.912528 0.000000
vt 0.912528 0.369502
vt 0.852234 0.369502
vt 0.852234 0.000000
vt 0.788070 0.369502
vt 0.788071 0.000000
vt 0.727777 0.369502
vt 0.727777 0.000000
vt 0.849165 0.369502
vt 0.849165 0.739004
vt 0.800013 0.739004
vt 0.800013 0.369502
vt 0.739719 0.739004
vt 0.739719 0.369502
vt 0.675556 0.739004
vt 0.675556 0.369502
vt 0.615262 0.739004
vt 0.615262 0.369502
vt 0.566110 0.739004
vt 0.566110 0.369502
vt 0.516958 0.739004
vt 0.516958 0.369502
vt 0.456664 0.739004
vt 0.456664 0.369502
vt 0.392501 0.739004
vt 0.392501 0.369502
vt 0.332207 0.739004
vt 0.332207 0.369502
vt 0.283055 0.739004
vt 0.283055 0.369502
vt 0.233903 0.739004
vt 0.233903 0.369502
vt 0.245133 0.011142
vt 0.300700 0.043224
vt 0.341943 0.092375
vt 0.363888 0.152669
vt 0.363888 0.216833
vt 0.341943 0.277126
vt 0.300700 0.326278
vt 0.245133 0.358360
vt 0.181944 0.369502
vt 0.118756 0.358360
vt 0.063189 0.326278
vt 0.021945 0.277126
vt 0.000000 0.216833
vt 0.000000 0.152669
vt 0.021945 0.092376
vt 0.063188 0.043224
vt 0.118755 0.011142
vt 0.181944 0.000000
vt 0.358332 0.739004
vt 0.358332 1.000000
vt 0.315556 1.000000
vt 0.315556 0.739004
vt 0.275360 1.000000
vt 0.275360 0.739004
vt 0.242592 1.000000
vt 0.242592 0.739004
vt 0.972332 0.369502
vt 0.972332 0.630498
vt 0.932136 0.630498
vt 0.932136 0.369502
vt 0.889361 0.630498
vt 0.889361 0.369502
vt 0.849165 0.630498
vt 0.849165 0.369502
vt 0.808702 0.739004
vt 0.808702 1.000000
vt 0.775934 1.000000
vt 0.775934 0.739004
vt 0.735738 1.000000
vt 0.735738 0.739004
vt 0.692963 1.000000
vt 0.692963 0.739004
vt 0.652767 1.000000
vt 0.652767 0.739004
vt 0.619999 1.000000
vt 0.619999 0.739004
vt 0.587231 1.000000
vt 0.587231 0.739004
vt 0.547035 1.000000
vt 0.547035 0.739004
vt 0.504259 1.000000
vt 0.504259 0.739004
vt 0.464063 1.000000
vt 0.464064 0.739004
vt 0.431296 1.000000
vt 0.431296 0.739004
vt 0.398528 1.000000
vt 0.398528 0.739004
vt 0.466662 0.090399
vt 0.427077 0.043224
vt 0.482644 0.011142
vt 0.545833 0.000000
vt 0.609021 0.011142
vt 0.664588 0.043224
vt 0.705831 0.092375
vt 0.727777 0.152669
vt 0.727777 0.216833
vt 0.705831 0.277126
vt 0.664588 0.326278
vt 0.609021 0.358360
vt 0.545832 0.369502
vt 0.482644 0.358360
vt 0.503707 0.300490
vt 0.545832 0.307918
vt 0.587958 0.300490
vt 0.625003 0.279103
vt 0.652498 0.246335
vt 0.667129 0.206139
vt 0.667129 0.163363
vt 0.652498 0.123167
vt 0.625003 0.090399
vt 0.587958 0.069012
vt 0.545833 0.061584
vt 0.503707 0.069012
vt 0.427077 0.326278
vt 0.385833 0.277126
vt 0.363888 0.216832
vt 0.363888 0.152669
vt 0.385834 0.092375
vt 0.439166 0.123167
vt 0.424536 0.163363
vt 0.424536 0.206139
vt 0.439166 0.246334
vt 0.466662 0.279103
vn 0.0000 1.0000 0.0000
vn 0.1736 0.0000 -0.9848
vn 0.5000 0.0000 -0.8660
vn 0.7660 0.0000 -0.6428
vn 0.9397 0.0000 -0.3420
vn 1.0000 0.0000 0.0000
vn 0.9397 0.0000 0.3420
vn 0.7660 0.0000 0.6428
vn 0.5000 0.0000 0.8660
vn 0.1736 0.0000 0.9848
vn -0.1736 0.0000 0.9848
vn -0.5000 0.0000 0.8660
vn -0.7660 0.0000 0.6428
vn -0.9397 0.0000 0.3420
vn -1.0000 0.0000 0.0000
vn -0.9397 0.0000 -0.3420
vn -0.7660 0.0000 -0.6428
vn -0.5000 0.0000 -0.8660
vn -0.1736 0.0000 -0.9848
vn 0.0000 -1.0000 -0.0000
usemtl マテリアル
s off
f 2/1/1 1/2/1 18/3/1 17/4/1 16/5/1 15/6/1 14/7/1 13/8/1 12/9/1 11/10/1 10/11/1 9/12/1 8/13/1 7/14/1 6/15/1 5/16/1 4/17/1 3/18/1
f 19/19/2 20/20/2 22/21/2 21/22/2
f 21/22/3 22/21/3 24/23/3 23/24/3
f 23/24/4 24/23/4 26/25/4 25/26/4
f 25/27/5 26/28/5 28/29/5 27/30/5
f 27/30/6 28/29/6 30/31/6 29/32/6
f 29/32/7 30/31/7 32/33/7 31/34/7
f 31/35/8 32/36/8 34/37/8 33/38/8
f 33/38/9 34/37/9 36/39/9 35/40/9
f 35/40/10 36/39/10 38/41/10 37/42/10
f 37/42/11 38/41/11 40/43/11 39/44/11
f 39/44/12 40/43/12 42/45/12 41/46/12
f 41/46/13 42/45/13 44/47/13 43/48/13
f 43/48/14 44/47/14 46/49/14 45/50/14
f 45/50/15 46/49/15 48/51/15 47/52/15
f 47/52/16 48/51/16 50/53/16 49/54/16
f 49/54/17 50/53/17 52/55/17 51/56/17
f 51/56/18 52/55/18 54/57/18 53/58/18
f 53/58/19 54/57/19 20/20/19 19/19/19
f 19/59/20 21/60/20 23/61/20 25/62/20 27/63/20 29/64/20 31/65/20 33/66/20 35/67/20 37/68/20 39/69/20 41/70/20 43/71/20 45/72/20 47/73/20 49/74/20 51/75/20 53/76/20
f 55/77/2 1/78/2 2/79/2 58/80/2
f 2/79/3 3/81/3 60/82/3 58/80/3
f 60/82/4 3/81/4 4/83/4 62/84/4
f 62/85/5 4/86/5 5/87/5 64/88/5
f 64/88/6 5/87/6 6/89/6 65/90/6
f 65/90/7 6/89/7 7/91/7 66/92/7
f 66/93/8 7/94/8 8/95/8 67/96/8
f 67/96/9 8/95/9 9/97/9 68/98/9
f 68/98/10 9/97/10 10/99/10 69/100/10
f 69/100/11 10/99/11 11/101/11 70/102/11
f 70/102/12 11/101/12 12/103/12 71/104/12
f 71/104/13 12/103/13 13/105/13 72/106/13
f 72/106/14 13/105/14 14/107/14 56/108/14
f 56/108/15 14/107/15 15/109/15 57/110/15
f 57/110/16 15/109/16 16/111/16 59/112/16
f 16/111/17 17/113/17 61/114/17 59/112/17
f 17/113/18 18/115/18 63/116/18 61/114/18
f 18/115/19 1/78/19 55/77/19 63/116/19
f 70/117/1 40/118/1 38/119/1 36/120/1 34/121/1 32/122/1 30/123/1 28/124/1 26/125/1 24/126/1 22/127/1 20/128/1 54/129/1 52/130/1 61/131/1 63/132/1 55/133/1 58/134/1 60/135/1 62/136/1 64/137/1 65/138/1 66/139/1 67/140/1 68/141/1 69/142/1
f 52/130/1 50/143/1 48/144/1 46/145/1 44/146/1 42/147/1 40/118/1 70/117/1 71/148/1 72/149/1 56/150/1 57/151/1 59/152/1 61/131/1
